<mxfile host="Electron" agent="Mozilla/5.0 (Windows NT 10.0; Win64; x64) AppleWebKit/537.36 (KHTML, like Gecko) draw.io/24.7.17 Chrome/128.0.6613.36 Electron/32.0.1 Safari/537.36" version="24.7.17">
  <diagram name="第 1 页" id="-QAlYeZtg2qHiJ6M3wcY">
    <mxGraphModel dx="1050" dy="621" grid="1" gridSize="10" guides="1" tooltips="1" connect="1" arrows="1" fold="1" page="1" pageScale="1" pageWidth="827" pageHeight="1169" math="0" shadow="0">
      <root>
        <mxCell id="0" />
        <mxCell id="1" parent="0" />
        <mxCell id="HyDLfif7CNZUrXZ-SXpS-25" style="edgeStyle=orthogonalEdgeStyle;rounded=0;orthogonalLoop=1;jettySize=auto;html=1;entryX=0.5;entryY=0;entryDx=0;entryDy=0;endArrow=none;endFill=0;" parent="1" source="HyDLfif7CNZUrXZ-SXpS-1" target="HyDLfif7CNZUrXZ-SXpS-2" edge="1">
          <mxGeometry relative="1" as="geometry" />
        </mxCell>
        <mxCell id="HyDLfif7CNZUrXZ-SXpS-43" style="edgeStyle=orthogonalEdgeStyle;rounded=0;orthogonalLoop=1;jettySize=auto;html=1;exitX=0.25;exitY=1;exitDx=0;exitDy=0;entryX=0.5;entryY=0;entryDx=0;entryDy=0;endArrow=none;endFill=0;" parent="1" source="HyDLfif7CNZUrXZ-SXpS-1" target="HyDLfif7CNZUrXZ-SXpS-3" edge="1">
          <mxGeometry relative="1" as="geometry" />
        </mxCell>
        <mxCell id="HyDLfif7CNZUrXZ-SXpS-44" style="edgeStyle=orthogonalEdgeStyle;rounded=0;orthogonalLoop=1;jettySize=auto;html=1;exitX=0.75;exitY=1;exitDx=0;exitDy=0;entryX=0.5;entryY=0;entryDx=0;entryDy=0;endArrow=none;endFill=0;" parent="1" source="HyDLfif7CNZUrXZ-SXpS-1" target="HyDLfif7CNZUrXZ-SXpS-4" edge="1">
          <mxGeometry relative="1" as="geometry" />
        </mxCell>
        <mxCell id="HyDLfif7CNZUrXZ-SXpS-57" style="edgeStyle=orthogonalEdgeStyle;rounded=0;orthogonalLoop=1;jettySize=auto;html=1;entryX=0.5;entryY=0;entryDx=0;entryDy=0;endArrow=none;endFill=0;" parent="1" source="HyDLfif7CNZUrXZ-SXpS-1" target="HyDLfif7CNZUrXZ-SXpS-8" edge="1">
          <mxGeometry relative="1" as="geometry" />
        </mxCell>
        <mxCell id="HyDLfif7CNZUrXZ-SXpS-1" value="流浪动物救助平台" style="rounded=0;whiteSpace=wrap;html=1;" parent="1" vertex="1">
          <mxGeometry x="354" y="80" width="120" height="40" as="geometry" />
        </mxCell>
        <mxCell id="HyDLfif7CNZUrXZ-SXpS-15" style="edgeStyle=orthogonalEdgeStyle;rounded=0;orthogonalLoop=1;jettySize=auto;html=1;entryX=0.5;entryY=0;entryDx=0;entryDy=0;endArrow=none;endFill=0;" parent="1" source="HyDLfif7CNZUrXZ-SXpS-2" target="HyDLfif7CNZUrXZ-SXpS-12" edge="1">
          <mxGeometry relative="1" as="geometry" />
        </mxCell>
        <mxCell id="HyDLfif7CNZUrXZ-SXpS-16" style="edgeStyle=orthogonalEdgeStyle;rounded=0;orthogonalLoop=1;jettySize=auto;html=1;exitX=0.25;exitY=1;exitDx=0;exitDy=0;entryX=0.5;entryY=0;entryDx=0;entryDy=0;endArrow=none;endFill=0;" parent="1" source="HyDLfif7CNZUrXZ-SXpS-2" target="HyDLfif7CNZUrXZ-SXpS-10" edge="1">
          <mxGeometry relative="1" as="geometry" />
        </mxCell>
        <mxCell id="HyDLfif7CNZUrXZ-SXpS-17" style="edgeStyle=orthogonalEdgeStyle;rounded=0;orthogonalLoop=1;jettySize=auto;html=1;exitX=0.5;exitY=1;exitDx=0;exitDy=0;entryX=0.5;entryY=0;entryDx=0;entryDy=0;endArrow=none;endFill=0;" parent="1" source="HyDLfif7CNZUrXZ-SXpS-2" target="HyDLfif7CNZUrXZ-SXpS-11" edge="1">
          <mxGeometry relative="1" as="geometry" />
        </mxCell>
        <mxCell id="HyDLfif7CNZUrXZ-SXpS-18" style="edgeStyle=orthogonalEdgeStyle;rounded=0;orthogonalLoop=1;jettySize=auto;html=1;exitX=0.75;exitY=1;exitDx=0;exitDy=0;entryX=0.5;entryY=0;entryDx=0;entryDy=0;endArrow=none;endFill=0;" parent="1" source="HyDLfif7CNZUrXZ-SXpS-2" target="HyDLfif7CNZUrXZ-SXpS-13" edge="1">
          <mxGeometry relative="1" as="geometry" />
        </mxCell>
        <mxCell id="HyDLfif7CNZUrXZ-SXpS-2" value="社区模块" style="rounded=0;whiteSpace=wrap;html=1;" parent="1" vertex="1">
          <mxGeometry x="158" y="160" width="80" height="40" as="geometry" />
        </mxCell>
        <mxCell id="HyDLfif7CNZUrXZ-SXpS-28" style="edgeStyle=orthogonalEdgeStyle;rounded=0;orthogonalLoop=1;jettySize=auto;html=1;entryX=0.5;entryY=0;entryDx=0;entryDy=0;endArrow=none;endFill=0;" parent="1" source="HyDLfif7CNZUrXZ-SXpS-3" target="HyDLfif7CNZUrXZ-SXpS-21" edge="1">
          <mxGeometry relative="1" as="geometry" />
        </mxCell>
        <mxCell id="HyDLfif7CNZUrXZ-SXpS-29" style="edgeStyle=orthogonalEdgeStyle;rounded=0;orthogonalLoop=1;jettySize=auto;html=1;exitX=0.25;exitY=1;exitDx=0;exitDy=0;entryX=0.5;entryY=0;entryDx=0;entryDy=0;endArrow=none;endFill=0;" parent="1" source="HyDLfif7CNZUrXZ-SXpS-3" target="HyDLfif7CNZUrXZ-SXpS-22" edge="1">
          <mxGeometry relative="1" as="geometry" />
        </mxCell>
        <mxCell id="HyDLfif7CNZUrXZ-SXpS-30" style="edgeStyle=orthogonalEdgeStyle;rounded=0;orthogonalLoop=1;jettySize=auto;html=1;exitX=0.5;exitY=1;exitDx=0;exitDy=0;entryX=0.5;entryY=0;entryDx=0;entryDy=0;endArrow=none;endFill=0;" parent="1" source="HyDLfif7CNZUrXZ-SXpS-3" target="HyDLfif7CNZUrXZ-SXpS-23" edge="1">
          <mxGeometry relative="1" as="geometry" />
        </mxCell>
        <mxCell id="HyDLfif7CNZUrXZ-SXpS-31" style="edgeStyle=orthogonalEdgeStyle;rounded=0;orthogonalLoop=1;jettySize=auto;html=1;exitX=0.75;exitY=1;exitDx=0;exitDy=0;entryX=0.5;entryY=0;entryDx=0;entryDy=0;endArrow=none;endFill=0;" parent="1" source="HyDLfif7CNZUrXZ-SXpS-3" target="HyDLfif7CNZUrXZ-SXpS-26" edge="1">
          <mxGeometry relative="1" as="geometry" />
        </mxCell>
        <mxCell id="HyDLfif7CNZUrXZ-SXpS-32" style="edgeStyle=orthogonalEdgeStyle;rounded=0;orthogonalLoop=1;jettySize=auto;html=1;entryX=0.5;entryY=0;entryDx=0;entryDy=0;endArrow=none;endFill=0;" parent="1" source="HyDLfif7CNZUrXZ-SXpS-3" target="HyDLfif7CNZUrXZ-SXpS-27" edge="1">
          <mxGeometry relative="1" as="geometry" />
        </mxCell>
        <mxCell id="HyDLfif7CNZUrXZ-SXpS-3" value="用户模块" style="rounded=0;whiteSpace=wrap;html=1;" parent="1" vertex="1">
          <mxGeometry x="290" y="160" width="80" height="40" as="geometry" />
        </mxCell>
        <mxCell id="HyDLfif7CNZUrXZ-SXpS-38" style="edgeStyle=orthogonalEdgeStyle;rounded=0;orthogonalLoop=1;jettySize=auto;html=1;entryX=0.5;entryY=0;entryDx=0;entryDy=0;endArrow=none;endFill=0;" parent="1" source="HyDLfif7CNZUrXZ-SXpS-4" target="HyDLfif7CNZUrXZ-SXpS-33" edge="1">
          <mxGeometry relative="1" as="geometry">
            <Array as="points">
              <mxPoint x="430" y="180" />
            </Array>
          </mxGeometry>
        </mxCell>
        <mxCell id="HyDLfif7CNZUrXZ-SXpS-39" style="edgeStyle=orthogonalEdgeStyle;rounded=0;orthogonalLoop=1;jettySize=auto;html=1;exitX=0.25;exitY=1;exitDx=0;exitDy=0;entryX=0.5;entryY=0;entryDx=0;entryDy=0;endArrow=none;endFill=0;" parent="1" source="HyDLfif7CNZUrXZ-SXpS-4" target="HyDLfif7CNZUrXZ-SXpS-34" edge="1">
          <mxGeometry relative="1" as="geometry" />
        </mxCell>
        <mxCell id="HyDLfif7CNZUrXZ-SXpS-40" style="edgeStyle=orthogonalEdgeStyle;rounded=0;orthogonalLoop=1;jettySize=auto;html=1;exitX=0.5;exitY=1;exitDx=0;exitDy=0;entryX=0.5;entryY=0;entryDx=0;entryDy=0;endArrow=none;endFill=0;" parent="1" source="HyDLfif7CNZUrXZ-SXpS-4" target="HyDLfif7CNZUrXZ-SXpS-35" edge="1">
          <mxGeometry relative="1" as="geometry" />
        </mxCell>
        <mxCell id="HyDLfif7CNZUrXZ-SXpS-42" style="edgeStyle=orthogonalEdgeStyle;rounded=0;orthogonalLoop=1;jettySize=auto;html=1;entryX=0.5;entryY=0;entryDx=0;entryDy=0;endArrow=none;endFill=0;" parent="1" source="HyDLfif7CNZUrXZ-SXpS-4" target="HyDLfif7CNZUrXZ-SXpS-37" edge="1">
          <mxGeometry relative="1" as="geometry">
            <Array as="points">
              <mxPoint x="532" y="180" />
            </Array>
          </mxGeometry>
        </mxCell>
        <mxCell id="HyDLfif7CNZUrXZ-SXpS-4" value="管理模块" style="rounded=0;whiteSpace=wrap;html=1;" parent="1" vertex="1">
          <mxGeometry x="441" y="160" width="80" height="40" as="geometry" />
        </mxCell>
        <mxCell id="HyDLfif7CNZUrXZ-SXpS-52" style="edgeStyle=orthogonalEdgeStyle;rounded=0;orthogonalLoop=1;jettySize=auto;html=1;entryX=0.5;entryY=0;entryDx=0;entryDy=0;endArrow=none;endFill=0;" parent="1" source="HyDLfif7CNZUrXZ-SXpS-8" target="HyDLfif7CNZUrXZ-SXpS-45" edge="1">
          <mxGeometry relative="1" as="geometry" />
        </mxCell>
        <mxCell id="HyDLfif7CNZUrXZ-SXpS-53" style="edgeStyle=orthogonalEdgeStyle;rounded=0;orthogonalLoop=1;jettySize=auto;html=1;entryX=0.5;entryY=0;entryDx=0;entryDy=0;endArrow=none;endFill=0;" parent="1" source="HyDLfif7CNZUrXZ-SXpS-8" target="HyDLfif7CNZUrXZ-SXpS-48" edge="1">
          <mxGeometry relative="1" as="geometry" />
        </mxCell>
        <mxCell id="HyDLfif7CNZUrXZ-SXpS-55" style="edgeStyle=orthogonalEdgeStyle;rounded=0;orthogonalLoop=1;jettySize=auto;html=1;exitX=0.25;exitY=1;exitDx=0;exitDy=0;entryX=0.5;entryY=0;entryDx=0;entryDy=0;endArrow=none;endFill=0;" parent="1" source="HyDLfif7CNZUrXZ-SXpS-8" target="HyDLfif7CNZUrXZ-SXpS-46" edge="1">
          <mxGeometry relative="1" as="geometry" />
        </mxCell>
        <mxCell id="HyDLfif7CNZUrXZ-SXpS-56" style="edgeStyle=orthogonalEdgeStyle;rounded=0;orthogonalLoop=1;jettySize=auto;html=1;exitX=0.75;exitY=1;exitDx=0;exitDy=0;entryX=0.5;entryY=0;entryDx=0;entryDy=0;endArrow=none;endFill=0;" parent="1" source="HyDLfif7CNZUrXZ-SXpS-8" target="HyDLfif7CNZUrXZ-SXpS-47" edge="1">
          <mxGeometry relative="1" as="geometry" />
        </mxCell>
        <mxCell id="HyDLfif7CNZUrXZ-SXpS-8" value="安全模块" style="rounded=0;whiteSpace=wrap;html=1;" parent="1" vertex="1">
          <mxGeometry x="583" y="160" width="80" height="40" as="geometry" />
        </mxCell>
        <mxCell id="HyDLfif7CNZUrXZ-SXpS-10" value="发帖评论" style="rounded=0;whiteSpace=wrap;html=1;textDirection=vertical-lr;" parent="1" vertex="1">
          <mxGeometry x="158" y="220" width="20" height="90" as="geometry" />
        </mxCell>
        <mxCell id="HyDLfif7CNZUrXZ-SXpS-11" value="帖子详情" style="rounded=0;whiteSpace=wrap;html=1;textDirection=vertical-lr;" parent="1" vertex="1">
          <mxGeometry x="188" y="220" width="20" height="90" as="geometry" />
        </mxCell>
        <mxCell id="HyDLfif7CNZUrXZ-SXpS-12" value="首页浏览" style="rounded=0;whiteSpace=wrap;html=1;textDirection=vertical-lr;" parent="1" vertex="1">
          <mxGeometry x="128" y="220" width="20" height="90" as="geometry" />
        </mxCell>
        <mxCell id="HyDLfif7CNZUrXZ-SXpS-13" value="消息私信" style="rounded=0;whiteSpace=wrap;html=1;textDirection=vertical-lr;" parent="1" vertex="1">
          <mxGeometry x="218" y="220" width="20" height="90" as="geometry" />
        </mxCell>
        <mxCell id="HyDLfif7CNZUrXZ-SXpS-21" value="个人主页" style="rounded=0;whiteSpace=wrap;html=1;textDirection=vertical-lr;" parent="1" vertex="1">
          <mxGeometry x="260" y="220" width="20" height="90" as="geometry" />
        </mxCell>
        <mxCell id="HyDLfif7CNZUrXZ-SXpS-22" value="编辑资料" style="rounded=0;whiteSpace=wrap;html=1;textDirection=vertical-lr;" parent="1" vertex="1">
          <mxGeometry x="290" y="220" width="20" height="90" as="geometry" />
        </mxCell>
        <mxCell id="HyDLfif7CNZUrXZ-SXpS-23" value="关注" style="rounded=0;whiteSpace=wrap;html=1;textDirection=vertical-lr;" parent="1" vertex="1">
          <mxGeometry x="320" y="220" width="20" height="90" as="geometry" />
        </mxCell>
        <mxCell id="HyDLfif7CNZUrXZ-SXpS-26" value="投喂" style="rounded=0;whiteSpace=wrap;html=1;textDirection=vertical-lr;" parent="1" vertex="1">
          <mxGeometry x="350" y="220" width="20" height="90" as="geometry" />
        </mxCell>
        <mxCell id="HyDLfif7CNZUrXZ-SXpS-27" value="领养申请" style="rounded=0;whiteSpace=wrap;html=1;textDirection=vertical-lr;" parent="1" vertex="1">
          <mxGeometry x="380" y="220" width="20" height="90" as="geometry" />
        </mxCell>
        <mxCell id="HyDLfif7CNZUrXZ-SXpS-33" value="用户管理" style="rounded=0;whiteSpace=wrap;html=1;textDirection=vertical-lr;" parent="1" vertex="1">
          <mxGeometry x="420" y="220" width="20" height="90" as="geometry" />
        </mxCell>
        <mxCell id="HyDLfif7CNZUrXZ-SXpS-34" value="动物管理" style="rounded=0;whiteSpace=wrap;html=1;textDirection=vertical-lr;" parent="1" vertex="1">
          <mxGeometry x="456" y="220" width="20" height="90" as="geometry" />
        </mxCell>
        <mxCell id="HyDLfif7CNZUrXZ-SXpS-35" value="内容管理" style="rounded=0;whiteSpace=wrap;html=1;textDirection=vertical-lr;" parent="1" vertex="1">
          <mxGeometry x="486" y="220" width="20" height="90" as="geometry" />
        </mxCell>
        <mxCell id="HyDLfif7CNZUrXZ-SXpS-37" value="申请审核" style="rounded=0;whiteSpace=wrap;html=1;textDirection=vertical-lr;" parent="1" vertex="1">
          <mxGeometry x="522" y="220" width="20" height="90" as="geometry" />
        </mxCell>
        <mxCell id="HyDLfif7CNZUrXZ-SXpS-45" value="登录注册" style="rounded=0;whiteSpace=wrap;html=1;textDirection=vertical-lr;" parent="1" vertex="1">
          <mxGeometry x="553" y="220" width="20" height="90" as="geometry" />
        </mxCell>
        <mxCell id="HyDLfif7CNZUrXZ-SXpS-46" value="身份鉴权" style="rounded=0;whiteSpace=wrap;html=1;textDirection=vertical-lr;" parent="1" vertex="1">
          <mxGeometry x="593" y="220" width="20" height="90" as="geometry" />
        </mxCell>
        <mxCell id="HyDLfif7CNZUrXZ-SXpS-47" value="数据加密" style="rounded=0;whiteSpace=wrap;html=1;textDirection=vertical-lr;" parent="1" vertex="1">
          <mxGeometry x="633" y="220" width="20" height="90" as="geometry" />
        </mxCell>
        <mxCell id="HyDLfif7CNZUrXZ-SXpS-48" value="账户认证" style="rounded=0;whiteSpace=wrap;html=1;textDirection=vertical-lr;" parent="1" vertex="1">
          <mxGeometry x="673" y="220" width="20" height="90" as="geometry" />
        </mxCell>
      </root>
    </mxGraphModel>
  </diagram>
</mxfile>
